<mxfile host="app.diagrams.net" agent="Mozilla/5.0 (X11; Linux x86_64; rv:136.0) Gecko/20100101 Firefox/136.0" version="26.1.3">
  <diagram name="Page-1" id="qwn2LQxBudZvSGgLypl7">
    <mxGraphModel dx="5561" dy="2947" grid="1" gridSize="10" guides="1" tooltips="1" connect="1" arrows="1" fold="1" page="1" pageScale="1" pageWidth="850" pageHeight="1100" math="0" shadow="0">
      <root>
        <mxCell id="0" />
        <mxCell id="1" parent="0" />
        <mxCell id="2X5gEa2YanrMBip19j6c-179" value="Directivo" style="rounded=0;whiteSpace=wrap;html=1;" parent="1" vertex="1">
          <mxGeometry x="-3460" y="-1800" width="200" height="60" as="geometry" />
        </mxCell>
        <mxCell id="2X5gEa2YanrMBip19j6c-418" style="edgeStyle=orthogonalEdgeStyle;rounded=0;orthogonalLoop=1;jettySize=auto;html=1;entryX=0.5;entryY=0;entryDx=0;entryDy=0;endArrow=none;startFill=0;" parent="1" source="2X5gEa2YanrMBip19j6c-422" target="2X5gEa2YanrMBip19j6c-286" edge="1">
          <mxGeometry relative="1" as="geometry" />
        </mxCell>
        <mxCell id="2X5gEa2YanrMBip19j6c-180" value="Participante" style="rounded=0;whiteSpace=wrap;html=1;" parent="1" vertex="1">
          <mxGeometry x="-3140" y="-1800" width="200" height="60" as="geometry" />
        </mxCell>
        <mxCell id="2X5gEa2YanrMBip19j6c-182" style="edgeStyle=orthogonalEdgeStyle;rounded=0;orthogonalLoop=1;jettySize=auto;html=1;startArrow=classic;startFill=1;endArrow=none;" parent="1" source="2X5gEa2YanrMBip19j6c-183" edge="1">
          <mxGeometry relative="1" as="geometry">
            <mxPoint x="-3200" y="-1859.35" as="targetPoint" />
          </mxGeometry>
        </mxCell>
        <mxCell id="2X5gEa2YanrMBip19j6c-183" value="Persona" style="rounded=0;whiteSpace=wrap;html=1;" parent="1" vertex="1">
          <mxGeometry x="-3300" y="-1990" width="200" height="60" as="geometry" />
        </mxCell>
        <mxCell id="2X5gEa2YanrMBip19j6c-184" value="" style="endArrow=none;startArrow=none;html=1;rounded=0;entryX=0.5;entryY=0;entryDx=0;entryDy=0;startFill=0;" parent="1" edge="1">
          <mxGeometry width="50" height="50" relative="1" as="geometry">
            <mxPoint x="-3360" y="-1799.35" as="sourcePoint" />
            <mxPoint x="-3040.5" y="-1799.35" as="targetPoint" />
            <Array as="points">
              <mxPoint x="-3360" y="-1859.35" />
              <mxPoint x="-3040.5" y="-1859.35" />
            </Array>
          </mxGeometry>
        </mxCell>
        <mxCell id="2X5gEa2YanrMBip19j6c-185" value="(T,E)" style="text;html=1;align=center;verticalAlign=middle;resizable=0;points=[];autosize=1;strokeColor=none;fillColor=none;" parent="1" vertex="1">
          <mxGeometry x="-3196" y="-1921.25" width="60" height="30" as="geometry" />
        </mxCell>
        <mxCell id="2X5gEa2YanrMBip19j6c-187" value="" style="group" parent="1" vertex="1" connectable="0">
          <mxGeometry x="-3244" y="-2017.9984757729337" width="8" height="28" as="geometry" />
        </mxCell>
        <mxCell id="2X5gEa2YanrMBip19j6c-188" value="" style="ellipse;whiteSpace=wrap;html=1;aspect=fixed;fillColor=light-dark(#FFFFFF,#FFFFFF);" parent="2X5gEa2YanrMBip19j6c-187" vertex="1">
          <mxGeometry width="8" height="8" as="geometry" />
        </mxCell>
        <mxCell id="2X5gEa2YanrMBip19j6c-189" style="edgeStyle=orthogonalEdgeStyle;rounded=0;orthogonalLoop=1;jettySize=auto;html=1;endArrow=none;startFill=0;" parent="2X5gEa2YanrMBip19j6c-187" edge="1">
          <mxGeometry relative="1" as="geometry">
            <mxPoint x="4" y="28" as="targetPoint" />
            <mxPoint x="4" y="8" as="sourcePoint" />
          </mxGeometry>
        </mxCell>
        <mxCell id="2X5gEa2YanrMBip19j6c-190" value="&lt;font style=&quot;font-size: 8px;&quot;&gt;dni&lt;/font&gt;" style="text;html=1;align=center;verticalAlign=middle;resizable=0;points=[];autosize=1;strokeColor=none;fillColor=none;rotation=-60;" parent="1" vertex="1">
          <mxGeometry x="-3260" y="-2047.6984757729342" width="40" height="30" as="geometry" />
        </mxCell>
        <mxCell id="2X5gEa2YanrMBip19j6c-191" value="" style="group" parent="1" vertex="1" connectable="0">
          <mxGeometry x="-3224" y="-2018.5384757729337" width="8" height="28" as="geometry" />
        </mxCell>
        <mxCell id="2X5gEa2YanrMBip19j6c-192" value="" style="ellipse;whiteSpace=wrap;html=1;aspect=fixed;fillColor=light-dark(#FFFFFF,transparent);" parent="2X5gEa2YanrMBip19j6c-191" vertex="1">
          <mxGeometry width="8" height="8" as="geometry" />
        </mxCell>
        <mxCell id="2X5gEa2YanrMBip19j6c-193" style="edgeStyle=orthogonalEdgeStyle;rounded=0;orthogonalLoop=1;jettySize=auto;html=1;endArrow=none;startFill=0;" parent="2X5gEa2YanrMBip19j6c-191" edge="1">
          <mxGeometry relative="1" as="geometry">
            <mxPoint x="4" y="28" as="targetPoint" />
            <mxPoint x="4" y="8" as="sourcePoint" />
          </mxGeometry>
        </mxCell>
        <mxCell id="2X5gEa2YanrMBip19j6c-194" value="&lt;font style=&quot;font-size: 8px;&quot;&gt;nombre&lt;/font&gt;" style="text;html=1;align=center;verticalAlign=middle;resizable=0;points=[];autosize=1;strokeColor=none;fillColor=none;rotation=-60;" parent="1" vertex="1">
          <mxGeometry x="-3242" y="-2054.2484757729335" width="50" height="30" as="geometry" />
        </mxCell>
        <mxCell id="2X5gEa2YanrMBip19j6c-195" value="" style="group" parent="1" vertex="1" connectable="0">
          <mxGeometry x="-3204.5" y="-2017.9984757729337" width="8" height="28" as="geometry" />
        </mxCell>
        <mxCell id="2X5gEa2YanrMBip19j6c-196" value="" style="ellipse;whiteSpace=wrap;html=1;aspect=fixed;fillColor=light-dark(#FFFFFF,transparent);" parent="2X5gEa2YanrMBip19j6c-195" vertex="1">
          <mxGeometry width="8" height="8" as="geometry" />
        </mxCell>
        <mxCell id="2X5gEa2YanrMBip19j6c-197" style="edgeStyle=orthogonalEdgeStyle;rounded=0;orthogonalLoop=1;jettySize=auto;html=1;endArrow=none;startFill=0;" parent="2X5gEa2YanrMBip19j6c-195" edge="1">
          <mxGeometry relative="1" as="geometry">
            <mxPoint x="4" y="28" as="targetPoint" />
            <mxPoint x="4" y="8" as="sourcePoint" />
          </mxGeometry>
        </mxCell>
        <mxCell id="2X5gEa2YanrMBip19j6c-198" value="&lt;font style=&quot;font-size: 8px;&quot;&gt;apellido&lt;/font&gt;" style="text;html=1;align=center;verticalAlign=middle;resizable=0;points=[];autosize=1;strokeColor=none;fillColor=none;rotation=-60;" parent="1" vertex="1">
          <mxGeometry x="-3224" y="-2057.698475772934" width="60" height="30" as="geometry" />
        </mxCell>
        <mxCell id="2X5gEa2YanrMBip19j6c-200" value="" style="group" parent="1" vertex="1" connectable="0">
          <mxGeometry x="-3184" y="-2017.9984757729337" width="8" height="28" as="geometry" />
        </mxCell>
        <mxCell id="2X5gEa2YanrMBip19j6c-201" value="" style="ellipse;whiteSpace=wrap;html=1;aspect=fixed;fillColor=light-dark(#FFFFFF,transparent);" parent="2X5gEa2YanrMBip19j6c-200" vertex="1">
          <mxGeometry width="8" height="8" as="geometry" />
        </mxCell>
        <mxCell id="2X5gEa2YanrMBip19j6c-202" style="edgeStyle=orthogonalEdgeStyle;rounded=0;orthogonalLoop=1;jettySize=auto;html=1;endArrow=none;startFill=0;" parent="2X5gEa2YanrMBip19j6c-200" edge="1">
          <mxGeometry relative="1" as="geometry">
            <mxPoint x="4" y="28" as="targetPoint" />
            <mxPoint x="4" y="8" as="sourcePoint" />
          </mxGeometry>
        </mxCell>
        <mxCell id="2X5gEa2YanrMBip19j6c-203" value="&lt;font style=&quot;font-size: 8px;&quot;&gt;telefono(1,n)&lt;/font&gt;" style="text;html=1;align=center;verticalAlign=middle;resizable=0;points=[];autosize=1;strokeColor=none;fillColor=none;rotation=-60;" parent="1" vertex="1">
          <mxGeometry x="-3212" y="-2066.9984757729344" width="90" height="30" as="geometry" />
        </mxCell>
        <mxCell id="2X5gEa2YanrMBip19j6c-207" value="" style="endArrow=none;html=1;rounded=0;" parent="1" edge="1">
          <mxGeometry width="50" height="50" relative="1" as="geometry">
            <mxPoint x="-3160" y="-1989.98" as="sourcePoint" />
            <mxPoint x="-3135" y="-2018.38" as="targetPoint" />
          </mxGeometry>
        </mxCell>
        <mxCell id="2X5gEa2YanrMBip19j6c-208" value="&lt;font style=&quot;font-size: 10px;&quot;&gt;direcciÃ³n&lt;/font&gt;" style="ellipse;whiteSpace=wrap;html=1;" parent="1" vertex="1">
          <mxGeometry x="-3146" y="-2037.38" width="76" height="24" as="geometry" />
        </mxCell>
        <mxCell id="2X5gEa2YanrMBip19j6c-209" value="" style="endArrow=none;html=1;rounded=0;exitX=0.75;exitY=0;exitDx=0;exitDy=0;" parent="1" edge="1">
          <mxGeometry width="50" height="50" relative="1" as="geometry">
            <mxPoint x="-3115" y="-2037.38" as="sourcePoint" />
            <mxPoint x="-3102" y="-2060.38" as="targetPoint" />
          </mxGeometry>
        </mxCell>
        <mxCell id="2X5gEa2YanrMBip19j6c-210" value="" style="endArrow=none;html=1;rounded=0;exitX=0.75;exitY=0;exitDx=0;exitDy=0;" parent="1" edge="1">
          <mxGeometry width="50" height="50" relative="1" as="geometry">
            <mxPoint x="-3085" y="-2034.38" as="sourcePoint" />
            <mxPoint x="-3075" y="-2047.38" as="targetPoint" />
          </mxGeometry>
        </mxCell>
        <mxCell id="2X5gEa2YanrMBip19j6c-211" value="" style="endArrow=none;html=1;rounded=0;exitX=1;exitY=0.5;exitDx=0;exitDy=0;" parent="1" source="2X5gEa2YanrMBip19j6c-208" edge="1">
          <mxGeometry width="50" height="50" relative="1" as="geometry">
            <mxPoint x="-3070" y="-2013.38" as="sourcePoint" />
            <mxPoint x="-3055" y="-2025.38" as="targetPoint" />
          </mxGeometry>
        </mxCell>
        <mxCell id="2X5gEa2YanrMBip19j6c-212" value="" style="endArrow=none;html=1;rounded=0;entryX=1;entryY=1;entryDx=0;entryDy=0;" parent="1" target="2X5gEa2YanrMBip19j6c-208" edge="1">
          <mxGeometry width="50" height="50" relative="1" as="geometry">
            <mxPoint x="-3065" y="-2007.38" as="sourcePoint" />
            <mxPoint x="-3075" y="-2027.38" as="targetPoint" />
          </mxGeometry>
        </mxCell>
        <mxCell id="2X5gEa2YanrMBip19j6c-213" value="" style="group" parent="1" vertex="1" connectable="0">
          <mxGeometry x="-3104" y="-2067.378729810778" width="8" height="28" as="geometry" />
        </mxCell>
        <mxCell id="2X5gEa2YanrMBip19j6c-214" value="" style="ellipse;whiteSpace=wrap;html=1;aspect=fixed;" parent="2X5gEa2YanrMBip19j6c-213" vertex="1">
          <mxGeometry width="8" height="8" as="geometry" />
        </mxCell>
        <mxCell id="2X5gEa2YanrMBip19j6c-215" value="" style="group" parent="1" vertex="1" connectable="0">
          <mxGeometry x="-3077" y="-2054.378729810778" width="8" height="28" as="geometry" />
        </mxCell>
        <mxCell id="2X5gEa2YanrMBip19j6c-216" value="" style="ellipse;whiteSpace=wrap;html=1;aspect=fixed;" parent="2X5gEa2YanrMBip19j6c-215" vertex="1">
          <mxGeometry width="8" height="8" as="geometry" />
        </mxCell>
        <mxCell id="2X5gEa2YanrMBip19j6c-217" value="" style="group" parent="1" vertex="1" connectable="0">
          <mxGeometry x="-3056" y="-2029.3787298107782" width="8" height="28" as="geometry" />
        </mxCell>
        <mxCell id="2X5gEa2YanrMBip19j6c-218" value="" style="ellipse;whiteSpace=wrap;html=1;aspect=fixed;" parent="2X5gEa2YanrMBip19j6c-217" vertex="1">
          <mxGeometry width="8" height="8" as="geometry" />
        </mxCell>
        <mxCell id="2X5gEa2YanrMBip19j6c-219" value="&lt;font style=&quot;font-size: 8px;&quot;&gt;calle&lt;/font&gt;" style="text;html=1;align=center;verticalAlign=middle;resizable=0;points=[];autosize=1;strokeColor=none;fillColor=none;rotation=0;" parent="1" vertex="1">
          <mxGeometry x="-3106" y="-2081.378729810778" width="50" height="30" as="geometry" />
        </mxCell>
        <mxCell id="2X5gEa2YanrMBip19j6c-220" value="&lt;font style=&quot;font-size: 8px;&quot;&gt;numero&lt;/font&gt;" style="text;html=1;align=center;verticalAlign=middle;resizable=0;points=[];autosize=1;strokeColor=none;fillColor=none;rotation=0;" parent="1" vertex="1">
          <mxGeometry x="-3077" y="-2068.378729810778" width="50" height="30" as="geometry" />
        </mxCell>
        <mxCell id="2X5gEa2YanrMBip19j6c-221" value="&lt;font style=&quot;font-size: 8px;&quot;&gt;piso(0,1)&lt;/font&gt;" style="text;html=1;align=center;verticalAlign=middle;resizable=0;points=[];autosize=1;strokeColor=none;fillColor=none;rotation=0;" parent="1" vertex="1">
          <mxGeometry x="-3058" y="-2043.3787298107782" width="70" height="30" as="geometry" />
        </mxCell>
        <mxCell id="2X5gEa2YanrMBip19j6c-222" value="&lt;font style=&quot;font-size: 8px;&quot;&gt;dpto(0,1)&lt;/font&gt;" style="text;html=1;align=center;verticalAlign=middle;resizable=0;points=[];autosize=1;strokeColor=none;fillColor=none;rotation=0;" parent="1" vertex="1">
          <mxGeometry x="-3068" y="-2023.578729810778" width="70" height="30" as="geometry" />
        </mxCell>
        <mxCell id="2X5gEa2YanrMBip19j6c-223" value="" style="ellipse;whiteSpace=wrap;html=1;aspect=fixed;" parent="1" vertex="1">
          <mxGeometry x="-3066" y="-2010.578729810778" width="8" height="8" as="geometry" />
        </mxCell>
        <mxCell id="2X5gEa2YanrMBip19j6c-225" value="" style="group" parent="1" vertex="1" connectable="0">
          <mxGeometry x="-3444" y="-1827.9984757729337" width="8" height="28" as="geometry" />
        </mxCell>
        <mxCell id="2X5gEa2YanrMBip19j6c-226" value="" style="ellipse;whiteSpace=wrap;html=1;aspect=fixed;fillColor=light-dark(#FFFFFF,transparent);" parent="2X5gEa2YanrMBip19j6c-225" vertex="1">
          <mxGeometry width="8" height="8" as="geometry" />
        </mxCell>
        <mxCell id="2X5gEa2YanrMBip19j6c-227" style="edgeStyle=orthogonalEdgeStyle;rounded=0;orthogonalLoop=1;jettySize=auto;html=1;endArrow=none;startFill=0;" parent="2X5gEa2YanrMBip19j6c-225" edge="1">
          <mxGeometry relative="1" as="geometry">
            <mxPoint x="4" y="28" as="targetPoint" />
            <mxPoint x="4" y="8" as="sourcePoint" />
          </mxGeometry>
        </mxCell>
        <mxCell id="2X5gEa2YanrMBip19j6c-228" value="&lt;font style=&quot;font-size: 8px;&quot;&gt;fecha_inicio_fed&lt;/font&gt;" style="text;html=1;align=center;verticalAlign=middle;resizable=0;points=[];autosize=1;strokeColor=none;fillColor=none;rotation=-60;" parent="1" vertex="1">
          <mxGeometry x="-3473" y="-1881.9984757729342" width="100" height="30" as="geometry" />
        </mxCell>
        <mxCell id="2X5gEa2YanrMBip19j6c-229" value="Cargo" style="rounded=0;whiteSpace=wrap;html=1;" parent="1" vertex="1">
          <mxGeometry x="-3840" y="-1800" width="200" height="60" as="geometry" />
        </mxCell>
        <mxCell id="2X5gEa2YanrMBip19j6c-230" style="edgeStyle=orthogonalEdgeStyle;rounded=0;orthogonalLoop=1;jettySize=auto;html=1;entryX=0;entryY=0.5;entryDx=0;entryDy=0;endArrow=none;startFill=0;" parent="1" source="2X5gEa2YanrMBip19j6c-232" edge="1">
          <mxGeometry relative="1" as="geometry">
            <mxPoint x="-3460" y="-1769" as="targetPoint" />
          </mxGeometry>
        </mxCell>
        <mxCell id="2X5gEa2YanrMBip19j6c-231" style="edgeStyle=orthogonalEdgeStyle;rounded=0;orthogonalLoop=1;jettySize=auto;html=1;entryX=1;entryY=0.5;entryDx=0;entryDy=0;endArrow=none;startFill=0;" parent="1" source="2X5gEa2YanrMBip19j6c-232" edge="1">
          <mxGeometry relative="1" as="geometry">
            <mxPoint x="-3640" y="-1769" as="targetPoint" />
          </mxGeometry>
        </mxCell>
        <mxCell id="2X5gEa2YanrMBip19j6c-232" value="trabaja" style="rhombus;whiteSpace=wrap;html=1;" parent="1" vertex="1">
          <mxGeometry x="-3591" y="-1809" width="80" height="80" as="geometry" />
        </mxCell>
        <mxCell id="2X5gEa2YanrMBip19j6c-233" value="" style="group" parent="1" vertex="1" connectable="0">
          <mxGeometry x="-3581" y="-1810.9984757729337" width="8" height="28" as="geometry" />
        </mxCell>
        <mxCell id="2X5gEa2YanrMBip19j6c-234" value="" style="ellipse;whiteSpace=wrap;html=1;aspect=fixed;fillColor=light-dark(#FFFFFF,transparent);" parent="2X5gEa2YanrMBip19j6c-233" vertex="1">
          <mxGeometry width="8" height="8" as="geometry" />
        </mxCell>
        <mxCell id="2X5gEa2YanrMBip19j6c-235" style="edgeStyle=orthogonalEdgeStyle;rounded=0;orthogonalLoop=1;jettySize=auto;html=1;endArrow=none;startFill=0;" parent="2X5gEa2YanrMBip19j6c-233" edge="1">
          <mxGeometry relative="1" as="geometry">
            <mxPoint x="4" y="28" as="targetPoint" />
            <mxPoint x="4" y="8" as="sourcePoint" />
          </mxGeometry>
        </mxCell>
        <mxCell id="2X5gEa2YanrMBip19j6c-236" value="" style="group" parent="1" vertex="1" connectable="0">
          <mxGeometry x="-3529" y="-1810.9984757729337" width="8" height="28" as="geometry" />
        </mxCell>
        <mxCell id="2X5gEa2YanrMBip19j6c-237" value="" style="ellipse;whiteSpace=wrap;html=1;aspect=fixed;fillColor=light-dark(#FFFFFF,transparent);" parent="2X5gEa2YanrMBip19j6c-236" vertex="1">
          <mxGeometry width="8" height="8" as="geometry" />
        </mxCell>
        <mxCell id="2X5gEa2YanrMBip19j6c-238" style="edgeStyle=orthogonalEdgeStyle;rounded=0;orthogonalLoop=1;jettySize=auto;html=1;endArrow=none;startFill=0;" parent="2X5gEa2YanrMBip19j6c-236" edge="1">
          <mxGeometry relative="1" as="geometry">
            <mxPoint x="4" y="28" as="targetPoint" />
            <mxPoint x="4" y="8" as="sourcePoint" />
          </mxGeometry>
        </mxCell>
        <mxCell id="2X5gEa2YanrMBip19j6c-239" value="&lt;font style=&quot;font-size: 8px;&quot;&gt;fecha_inicio&lt;/font&gt;" style="text;html=1;align=center;verticalAlign=middle;resizable=0;points=[];autosize=1;strokeColor=none;fillColor=none;rotation=-60;" parent="1" vertex="1">
          <mxGeometry x="-3606" y="-1855.9984757729337" width="80" height="30" as="geometry" />
        </mxCell>
        <mxCell id="2X5gEa2YanrMBip19j6c-240" value="&lt;font style=&quot;font-size: 8px;&quot;&gt;fecha_fin(0,1)&lt;/font&gt;" style="text;html=1;align=center;verticalAlign=middle;resizable=0;points=[];autosize=1;strokeColor=none;fillColor=none;rotation=-60;" parent="1" vertex="1">
          <mxGeometry x="-3557" y="-1859.9984757729337" width="90" height="30" as="geometry" />
        </mxCell>
        <mxCell id="2X5gEa2YanrMBip19j6c-241" value="(0,n)" style="text;html=1;align=center;verticalAlign=middle;resizable=0;points=[];autosize=1;strokeColor=none;fillColor=none;" parent="1" vertex="1">
          <mxGeometry x="-3641" y="-1796" width="60" height="30" as="geometry" />
        </mxCell>
        <mxCell id="2X5gEa2YanrMBip19j6c-242" value="(1,n)" style="text;html=1;align=center;verticalAlign=middle;resizable=0;points=[];autosize=1;strokeColor=none;fillColor=none;" parent="1" vertex="1">
          <mxGeometry x="-3519" y="-1796" width="60" height="30" as="geometry" />
        </mxCell>
        <mxCell id="2X5gEa2YanrMBip19j6c-243" value="" style="group" parent="1" vertex="1" connectable="0">
          <mxGeometry x="-3764" y="-1827.9984757729337" width="8" height="28" as="geometry" />
        </mxCell>
        <mxCell id="2X5gEa2YanrMBip19j6c-244" value="" style="ellipse;whiteSpace=wrap;html=1;aspect=fixed;fillColor=light-dark(#FFFFFF,#FFFFFF);" parent="2X5gEa2YanrMBip19j6c-243" vertex="1">
          <mxGeometry width="8" height="8" as="geometry" />
        </mxCell>
        <mxCell id="2X5gEa2YanrMBip19j6c-245" style="edgeStyle=orthogonalEdgeStyle;rounded=0;orthogonalLoop=1;jettySize=auto;html=1;endArrow=none;startFill=0;" parent="2X5gEa2YanrMBip19j6c-243" edge="1">
          <mxGeometry relative="1" as="geometry">
            <mxPoint x="4" y="28" as="targetPoint" />
            <mxPoint x="4" y="8" as="sourcePoint" />
          </mxGeometry>
        </mxCell>
        <mxCell id="2X5gEa2YanrMBip19j6c-246" value="&lt;font style=&quot;font-size: 8px;&quot;&gt;id&lt;/font&gt;" style="text;html=1;align=center;verticalAlign=middle;resizable=0;points=[];autosize=1;strokeColor=none;fillColor=none;rotation=-60;" parent="1" vertex="1">
          <mxGeometry x="-3777" y="-1855.6984757729342" width="30" height="30" as="geometry" />
        </mxCell>
        <mxCell id="2X5gEa2YanrMBip19j6c-247" value="" style="group" parent="1" vertex="1" connectable="0">
          <mxGeometry x="-3744" y="-1828.5384757729337" width="8" height="28" as="geometry" />
        </mxCell>
        <mxCell id="2X5gEa2YanrMBip19j6c-248" value="" style="ellipse;whiteSpace=wrap;html=1;aspect=fixed;fillColor=light-dark(#FFFFFF,#FFFFFF);" parent="2X5gEa2YanrMBip19j6c-247" vertex="1">
          <mxGeometry width="8" height="8" as="geometry" />
        </mxCell>
        <mxCell id="2X5gEa2YanrMBip19j6c-249" style="edgeStyle=orthogonalEdgeStyle;rounded=0;orthogonalLoop=1;jettySize=auto;html=1;endArrow=none;startFill=0;" parent="2X5gEa2YanrMBip19j6c-247" edge="1">
          <mxGeometry relative="1" as="geometry">
            <mxPoint x="4" y="28" as="targetPoint" />
            <mxPoint x="4" y="8" as="sourcePoint" />
          </mxGeometry>
        </mxCell>
        <mxCell id="2X5gEa2YanrMBip19j6c-250" value="&lt;font style=&quot;font-size: 8px;&quot;&gt;nombre&lt;/font&gt;" style="text;html=1;align=center;verticalAlign=middle;resizable=0;points=[];autosize=1;strokeColor=none;fillColor=none;rotation=-60;" parent="1" vertex="1">
          <mxGeometry x="-3761" y="-1863.5984757729334" width="50" height="30" as="geometry" />
        </mxCell>
        <mxCell id="2X5gEa2YanrMBip19j6c-251" value="" style="group" parent="1" vertex="1" connectable="0">
          <mxGeometry x="-3724.5" y="-1827.9984757729337" width="8" height="28" as="geometry" />
        </mxCell>
        <mxCell id="2X5gEa2YanrMBip19j6c-252" value="" style="ellipse;whiteSpace=wrap;html=1;aspect=fixed;fillColor=light-dark(#FFFFFF,transparent);" parent="2X5gEa2YanrMBip19j6c-251" vertex="1">
          <mxGeometry width="8" height="8" as="geometry" />
        </mxCell>
        <mxCell id="2X5gEa2YanrMBip19j6c-253" style="edgeStyle=orthogonalEdgeStyle;rounded=0;orthogonalLoop=1;jettySize=auto;html=1;endArrow=none;startFill=0;" parent="2X5gEa2YanrMBip19j6c-251" edge="1">
          <mxGeometry relative="1" as="geometry">
            <mxPoint x="4" y="28" as="targetPoint" />
            <mxPoint x="4" y="8" as="sourcePoint" />
          </mxGeometry>
        </mxCell>
        <mxCell id="2X5gEa2YanrMBip19j6c-254" value="&lt;font style=&quot;font-size: 8px;&quot;&gt;descripcion&lt;/font&gt;" style="text;html=1;align=center;verticalAlign=middle;resizable=0;points=[];autosize=1;strokeColor=none;fillColor=none;rotation=-60;" parent="1" vertex="1">
          <mxGeometry x="-3751" y="-1873.5984757729343" width="80" height="30" as="geometry" />
        </mxCell>
        <mxCell id="2X5gEa2YanrMBip19j6c-258" value="Categoria" style="rounded=0;whiteSpace=wrap;html=1;" parent="1" vertex="1">
          <mxGeometry x="-2951.5" y="-1281" width="200" height="60" as="geometry" />
        </mxCell>
        <mxCell id="2X5gEa2YanrMBip19j6c-259" value="" style="group" parent="1" vertex="1" connectable="0">
          <mxGeometry x="-2836" y="-1309.0184757729337" width="8" height="28" as="geometry" />
        </mxCell>
        <mxCell id="2X5gEa2YanrMBip19j6c-260" value="" style="ellipse;whiteSpace=wrap;html=1;aspect=fixed;fillColor=light-dark(#FFFFFF,transparent);" parent="2X5gEa2YanrMBip19j6c-259" vertex="1">
          <mxGeometry width="8" height="8" as="geometry" />
        </mxCell>
        <mxCell id="2X5gEa2YanrMBip19j6c-261" style="edgeStyle=orthogonalEdgeStyle;rounded=0;orthogonalLoop=1;jettySize=auto;html=1;endArrow=none;startFill=0;" parent="2X5gEa2YanrMBip19j6c-259" edge="1">
          <mxGeometry relative="1" as="geometry">
            <mxPoint x="4" y="28" as="targetPoint" />
            <mxPoint x="4" y="8" as="sourcePoint" />
          </mxGeometry>
        </mxCell>
        <mxCell id="2X5gEa2YanrMBip19j6c-262" value="&lt;font style=&quot;font-size: 8px;&quot;&gt;nombre&lt;/font&gt;" style="text;html=1;align=center;verticalAlign=middle;resizable=0;points=[];autosize=1;strokeColor=none;fillColor=none;rotation=-60;" parent="1" vertex="1">
          <mxGeometry x="-2854" y="-1344.9984757729342" width="50" height="30" as="geometry" />
        </mxCell>
        <mxCell id="2X5gEa2YanrMBip19j6c-263" value="" style="group" parent="1" vertex="1" connectable="0">
          <mxGeometry x="-2816" y="-1309.5584757729337" width="8" height="28" as="geometry" />
        </mxCell>
        <mxCell id="2X5gEa2YanrMBip19j6c-264" value="" style="ellipse;whiteSpace=wrap;html=1;aspect=fixed;fillColor=light-dark(#FFFFFF,transparent);" parent="2X5gEa2YanrMBip19j6c-263" vertex="1">
          <mxGeometry width="8" height="8" as="geometry" />
        </mxCell>
        <mxCell id="2X5gEa2YanrMBip19j6c-265" style="edgeStyle=orthogonalEdgeStyle;rounded=0;orthogonalLoop=1;jettySize=auto;html=1;endArrow=none;startFill=0;" parent="2X5gEa2YanrMBip19j6c-263" edge="1">
          <mxGeometry relative="1" as="geometry">
            <mxPoint x="4" y="28" as="targetPoint" />
            <mxPoint x="4" y="8" as="sourcePoint" />
          </mxGeometry>
        </mxCell>
        <mxCell id="2X5gEa2YanrMBip19j6c-266" value="&lt;font style=&quot;font-size: 8px;&quot;&gt;sexo&lt;/font&gt;" style="text;html=1;align=center;verticalAlign=middle;resizable=0;points=[];autosize=1;strokeColor=none;fillColor=none;rotation=-60;" parent="1" vertex="1">
          <mxGeometry x="-2831" y="-1341.9984757729335" width="40" height="30" as="geometry" />
        </mxCell>
        <mxCell id="2X5gEa2YanrMBip19j6c-271" value="" style="group" parent="1" vertex="1" connectable="0">
          <mxGeometry x="-2776" y="-1309.0184757729337" width="96" height="28" as="geometry" />
        </mxCell>
        <mxCell id="2X5gEa2YanrMBip19j6c-446" value="" style="endArrow=none;html=1;rounded=0;" parent="2X5gEa2YanrMBip19j6c-271" edge="1">
          <mxGeometry width="50" height="50" relative="1" as="geometry">
            <mxPoint x="-14" y="28.018475772933698" as="sourcePoint" />
            <mxPoint x="11" y="0.018475772933697954" as="targetPoint" />
          </mxGeometry>
        </mxCell>
        <mxCell id="2X5gEa2YanrMBip19j6c-447" value="nacimiento" style="ellipse;whiteSpace=wrap;html=1;" parent="2X5gEa2YanrMBip19j6c-271" vertex="1">
          <mxGeometry y="-18.981524227066302" width="76" height="24" as="geometry" />
        </mxCell>
        <mxCell id="2X5gEa2YanrMBip19j6c-448" value="" style="endArrow=none;html=1;rounded=0;exitX=0.75;exitY=0;exitDx=0;exitDy=0;" parent="2X5gEa2YanrMBip19j6c-271" edge="1">
          <mxGeometry width="50" height="50" relative="1" as="geometry">
            <mxPoint x="31" y="-18.981524227066302" as="sourcePoint" />
            <mxPoint x="44" y="-41.9815242270663" as="targetPoint" />
          </mxGeometry>
        </mxCell>
        <mxCell id="2X5gEa2YanrMBip19j6c-449" value="" style="endArrow=none;html=1;rounded=0;exitX=0.75;exitY=0;exitDx=0;exitDy=0;" parent="2X5gEa2YanrMBip19j6c-271" edge="1">
          <mxGeometry width="50" height="50" relative="1" as="geometry">
            <mxPoint x="61" y="-15.981524227066302" as="sourcePoint" />
            <mxPoint x="71" y="-28.981524227066302" as="targetPoint" />
          </mxGeometry>
        </mxCell>
        <mxCell id="2X5gEa2YanrMBip19j6c-452" value="" style="group" parent="2X5gEa2YanrMBip19j6c-271" vertex="1" connectable="0">
          <mxGeometry x="42" y="-48.98025403784436" width="8" height="28" as="geometry" />
        </mxCell>
        <mxCell id="2X5gEa2YanrMBip19j6c-453" value="" style="ellipse;whiteSpace=wrap;html=1;aspect=fixed;" parent="2X5gEa2YanrMBip19j6c-452" vertex="1">
          <mxGeometry width="8" height="8" as="geometry" />
        </mxCell>
        <mxCell id="2X5gEa2YanrMBip19j6c-454" value="" style="group" parent="2X5gEa2YanrMBip19j6c-271" vertex="1" connectable="0">
          <mxGeometry x="69" y="-35.98025403784436" width="8" height="28" as="geometry" />
        </mxCell>
        <mxCell id="2X5gEa2YanrMBip19j6c-455" value="" style="ellipse;whiteSpace=wrap;html=1;aspect=fixed;" parent="2X5gEa2YanrMBip19j6c-454" vertex="1">
          <mxGeometry width="8" height="8" as="geometry" />
        </mxCell>
        <mxCell id="2X5gEa2YanrMBip19j6c-458" value="&lt;font style=&quot;font-size: 8px;&quot;&gt;desde&lt;/font&gt;" style="text;html=1;align=center;verticalAlign=middle;resizable=0;points=[];autosize=1;strokeColor=none;fillColor=none;rotation=0;" parent="2X5gEa2YanrMBip19j6c-271" vertex="1">
          <mxGeometry x="40" y="-62.98025403784436" width="50" height="30" as="geometry" />
        </mxCell>
        <mxCell id="2X5gEa2YanrMBip19j6c-459" value="&lt;font style=&quot;font-size: 8px;&quot;&gt;hasta&lt;/font&gt;" style="text;html=1;align=center;verticalAlign=middle;resizable=0;points=[];autosize=1;strokeColor=none;fillColor=none;rotation=0;" parent="2X5gEa2YanrMBip19j6c-271" vertex="1">
          <mxGeometry x="66" y="-49.98025403784436" width="50" height="30" as="geometry" />
        </mxCell>
        <mxCell id="2X5gEa2YanrMBip19j6c-278" value="" style="group;rotation=90;" parent="1" vertex="1" connectable="0">
          <mxGeometry x="-2816" y="-1308.9984757729337" width="8" height="28" as="geometry" />
        </mxCell>
        <mxCell id="2X5gEa2YanrMBip19j6c-279" value="" style="ellipse;whiteSpace=wrap;html=1;aspect=fixed;fillColor=light-dark(#FFFFFF,#FFFFFF);direction=north;rotation=180;" parent="2X5gEa2YanrMBip19j6c-278" vertex="1">
          <mxGeometry x="10" y="10" width="8" height="8" as="geometry" />
        </mxCell>
        <mxCell id="2X5gEa2YanrMBip19j6c-280" style="edgeStyle=orthogonalEdgeStyle;rounded=0;orthogonalLoop=1;jettySize=auto;html=1;endArrow=none;startFill=0;" parent="2X5gEa2YanrMBip19j6c-278" edge="1">
          <mxGeometry relative="1" as="geometry">
            <mxPoint x="-10" y="14" as="targetPoint" />
            <mxPoint x="10" y="14" as="sourcePoint" />
          </mxGeometry>
        </mxCell>
        <mxCell id="2X5gEa2YanrMBip19j6c-282" value="" style="group;rotation=90;" parent="1" vertex="1" connectable="0">
          <mxGeometry x="-2822" y="-1308.9984757729337" width="8" height="28" as="geometry" />
        </mxCell>
        <mxCell id="2X5gEa2YanrMBip19j6c-284" style="edgeStyle=orthogonalEdgeStyle;rounded=0;orthogonalLoop=1;jettySize=auto;html=1;endArrow=none;startFill=0;" parent="2X5gEa2YanrMBip19j6c-282" edge="1">
          <mxGeometry relative="1" as="geometry">
            <mxPoint x="-10" y="14" as="targetPoint" />
            <mxPoint x="10" y="14" as="sourcePoint" />
          </mxGeometry>
        </mxCell>
        <mxCell id="2X5gEa2YanrMBip19j6c-285" value="Regata" style="rounded=0;whiteSpace=wrap;html=1;" parent="1" vertex="1">
          <mxGeometry x="-3520.5" y="-1490" width="200" height="60" as="geometry" />
        </mxCell>
        <mxCell id="2X5gEa2YanrMBip19j6c-286" value="Carrera" style="rounded=0;whiteSpace=wrap;html=1;" parent="1" vertex="1">
          <mxGeometry x="-3140.5" y="-1490.56" width="200" height="60" as="geometry" />
        </mxCell>
        <mxCell id="2X5gEa2YanrMBip19j6c-287" value="" style="group" parent="1" vertex="1" connectable="0">
          <mxGeometry x="-3454.5" y="-1518.0184757729337" width="8" height="28" as="geometry" />
        </mxCell>
        <mxCell id="2X5gEa2YanrMBip19j6c-288" value="" style="ellipse;whiteSpace=wrap;html=1;aspect=fixed;fillColor=light-dark(#FFFFFF,#FFFFFF);" parent="2X5gEa2YanrMBip19j6c-287" vertex="1">
          <mxGeometry width="8" height="8" as="geometry" />
        </mxCell>
        <mxCell id="2X5gEa2YanrMBip19j6c-289" style="edgeStyle=orthogonalEdgeStyle;rounded=0;orthogonalLoop=1;jettySize=auto;html=1;endArrow=none;startFill=0;" parent="2X5gEa2YanrMBip19j6c-287" edge="1">
          <mxGeometry relative="1" as="geometry">
            <mxPoint x="4" y="28" as="targetPoint" />
            <mxPoint x="4" y="8" as="sourcePoint" />
          </mxGeometry>
        </mxCell>
        <mxCell id="2X5gEa2YanrMBip19j6c-290" value="&lt;font style=&quot;font-size: 8px;&quot;&gt;id&lt;/font&gt;" style="text;html=1;align=center;verticalAlign=middle;resizable=0;points=[];autosize=1;strokeColor=none;fillColor=none;rotation=-60;" parent="1" vertex="1">
          <mxGeometry x="-3465.5" y="-1547.7184757729342" width="30" height="30" as="geometry" />
        </mxCell>
        <mxCell id="2X5gEa2YanrMBip19j6c-291" value="" style="group" parent="1" vertex="1" connectable="0">
          <mxGeometry x="-3434.5" y="-1518.5584757729337" width="8" height="28" as="geometry" />
        </mxCell>
        <mxCell id="2X5gEa2YanrMBip19j6c-292" value="" style="ellipse;whiteSpace=wrap;html=1;aspect=fixed;fillColor=light-dark(#FFFFFF,transparent);" parent="2X5gEa2YanrMBip19j6c-291" vertex="1">
          <mxGeometry width="8" height="8" as="geometry" />
        </mxCell>
        <mxCell id="2X5gEa2YanrMBip19j6c-293" style="edgeStyle=orthogonalEdgeStyle;rounded=0;orthogonalLoop=1;jettySize=auto;html=1;endArrow=none;startFill=0;" parent="2X5gEa2YanrMBip19j6c-291" edge="1">
          <mxGeometry relative="1" as="geometry">
            <mxPoint x="4" y="28" as="targetPoint" />
            <mxPoint x="4" y="8" as="sourcePoint" />
          </mxGeometry>
        </mxCell>
        <mxCell id="2X5gEa2YanrMBip19j6c-294" value="&lt;font style=&quot;font-size: 8px;&quot;&gt;aÃ±o&lt;/font&gt;" style="text;html=1;align=center;verticalAlign=middle;resizable=0;points=[];autosize=1;strokeColor=none;fillColor=none;rotation=-60;" parent="1" vertex="1">
          <mxGeometry x="-3450.5" y="-1548.9984757729335" width="40" height="30" as="geometry" />
        </mxCell>
        <mxCell id="2X5gEa2YanrMBip19j6c-295" value="" style="group" parent="1" vertex="1" connectable="0">
          <mxGeometry x="-3415" y="-1518.0184757729337" width="8" height="28" as="geometry" />
        </mxCell>
        <mxCell id="2X5gEa2YanrMBip19j6c-296" value="" style="ellipse;whiteSpace=wrap;html=1;aspect=fixed;fillColor=light-dark(#FFFFFF,transparent);" parent="2X5gEa2YanrMBip19j6c-295" vertex="1">
          <mxGeometry width="8" height="8" as="geometry" />
        </mxCell>
        <mxCell id="2X5gEa2YanrMBip19j6c-297" style="edgeStyle=orthogonalEdgeStyle;rounded=0;orthogonalLoop=1;jettySize=auto;html=1;endArrow=none;startFill=0;" parent="2X5gEa2YanrMBip19j6c-295" edge="1">
          <mxGeometry relative="1" as="geometry">
            <mxPoint x="4" y="28" as="targetPoint" />
            <mxPoint x="4" y="8" as="sourcePoint" />
          </mxGeometry>
        </mxCell>
        <mxCell id="2X5gEa2YanrMBip19j6c-298" value="&lt;font style=&quot;font-size: 8px;&quot;&gt;sede&lt;/font&gt;" style="text;html=1;align=center;verticalAlign=middle;resizable=0;points=[];autosize=1;strokeColor=none;fillColor=none;rotation=-60;" parent="1" vertex="1">
          <mxGeometry x="-3430.5" y="-1550.9984757729342" width="40" height="30" as="geometry" />
        </mxCell>
        <mxCell id="2X5gEa2YanrMBip19j6c-299" value="" style="group" parent="1" vertex="1" connectable="0">
          <mxGeometry x="-3394.5" y="-1518.0184757729337" width="8" height="28" as="geometry" />
        </mxCell>
        <mxCell id="2X5gEa2YanrMBip19j6c-300" value="" style="ellipse;whiteSpace=wrap;html=1;aspect=fixed;fillColor=light-dark(#FFFFFF,transparent);" parent="2X5gEa2YanrMBip19j6c-299" vertex="1">
          <mxGeometry width="8" height="8" as="geometry" />
        </mxCell>
        <mxCell id="2X5gEa2YanrMBip19j6c-301" style="edgeStyle=orthogonalEdgeStyle;rounded=0;orthogonalLoop=1;jettySize=auto;html=1;endArrow=none;startFill=0;" parent="2X5gEa2YanrMBip19j6c-299" edge="1">
          <mxGeometry relative="1" as="geometry">
            <mxPoint x="4" y="28" as="targetPoint" />
            <mxPoint x="4" y="8" as="sourcePoint" />
          </mxGeometry>
        </mxCell>
        <mxCell id="2X5gEa2YanrMBip19j6c-302" value="&lt;font style=&quot;font-size: 8px;&quot;&gt;costo_inscrip&lt;/font&gt;" style="text;html=1;align=center;verticalAlign=middle;resizable=0;points=[];autosize=1;strokeColor=none;fillColor=none;rotation=-60;" parent="1" vertex="1">
          <mxGeometry x="-3423.5" y="-1568.9984757729344" width="90" height="30" as="geometry" />
        </mxCell>
        <mxCell id="2X5gEa2YanrMBip19j6c-304" value="Tipo_Regata" style="rounded=0;whiteSpace=wrap;html=1;" parent="1" vertex="1">
          <mxGeometry x="-3711.5" y="-1281" width="200" height="60" as="geometry" />
        </mxCell>
        <mxCell id="2X5gEa2YanrMBip19j6c-305" style="edgeStyle=orthogonalEdgeStyle;rounded=0;orthogonalLoop=1;jettySize=auto;html=1;entryX=0;entryY=0.5;entryDx=0;entryDy=0;endArrow=none;startFill=0;" parent="1" source="2X5gEa2YanrMBip19j6c-307" edge="1">
          <mxGeometry relative="1" as="geometry">
            <mxPoint x="-3520.5" y="-1460" as="targetPoint" />
          </mxGeometry>
        </mxCell>
        <mxCell id="2X5gEa2YanrMBip19j6c-364" style="edgeStyle=orthogonalEdgeStyle;rounded=0;orthogonalLoop=1;jettySize=auto;html=1;entryX=0.5;entryY=0;entryDx=0;entryDy=0;endArrow=none;startFill=0;" parent="1" source="2X5gEa2YanrMBip19j6c-307" target="2X5gEa2YanrMBip19j6c-304" edge="1">
          <mxGeometry relative="1" as="geometry" />
        </mxCell>
        <mxCell id="2X5gEa2YanrMBip19j6c-307" value="tiene" style="rhombus;whiteSpace=wrap;html=1;" parent="1" vertex="1">
          <mxGeometry x="-3651.5" y="-1500" width="80" height="80" as="geometry" />
        </mxCell>
        <mxCell id="2X5gEa2YanrMBip19j6c-316" value="(0,n)" style="text;html=1;align=center;verticalAlign=middle;resizable=0;points=[];autosize=1;strokeColor=none;fillColor=none;" parent="1" vertex="1">
          <mxGeometry x="-3671.5" y="-1311" width="60" height="30" as="geometry" />
        </mxCell>
        <mxCell id="2X5gEa2YanrMBip19j6c-317" value="(1,1)" style="text;html=1;align=center;verticalAlign=middle;resizable=0;points=[];autosize=1;strokeColor=none;fillColor=none;" parent="1" vertex="1">
          <mxGeometry x="-3577.5" y="-1487" width="60" height="30" as="geometry" />
        </mxCell>
        <mxCell id="2X5gEa2YanrMBip19j6c-319" value="" style="group" parent="1" vertex="1" connectable="0">
          <mxGeometry x="-3571.5" y="-1308.9984757729337" width="8" height="28" as="geometry" />
        </mxCell>
        <mxCell id="2X5gEa2YanrMBip19j6c-320" value="" style="ellipse;whiteSpace=wrap;html=1;aspect=fixed;fillColor=light-dark(#FFFFFF,#FFFFFF);" parent="2X5gEa2YanrMBip19j6c-319" vertex="1">
          <mxGeometry width="8" height="8" as="geometry" />
        </mxCell>
        <mxCell id="2X5gEa2YanrMBip19j6c-321" style="edgeStyle=orthogonalEdgeStyle;rounded=0;orthogonalLoop=1;jettySize=auto;html=1;endArrow=none;startFill=0;" parent="2X5gEa2YanrMBip19j6c-319" edge="1">
          <mxGeometry relative="1" as="geometry">
            <mxPoint x="4" y="28" as="targetPoint" />
            <mxPoint x="4" y="8" as="sourcePoint" />
          </mxGeometry>
        </mxCell>
        <mxCell id="2X5gEa2YanrMBip19j6c-322" value="&lt;font style=&quot;font-size: 8px;&quot;&gt;nombre&lt;/font&gt;" style="text;html=1;align=center;verticalAlign=middle;resizable=0;points=[];autosize=1;strokeColor=none;fillColor=none;rotation=-60;" parent="1" vertex="1">
          <mxGeometry x="-3588.5" y="-1342.9984757729342" width="50" height="30" as="geometry" />
        </mxCell>
        <mxCell id="2X5gEa2YanrMBip19j6c-323" value="" style="group" parent="1" vertex="1" connectable="0">
          <mxGeometry x="-3551.5" y="-1309.5384757729337" width="8" height="28" as="geometry" />
        </mxCell>
        <mxCell id="2X5gEa2YanrMBip19j6c-324" value="" style="ellipse;whiteSpace=wrap;html=1;aspect=fixed;fillColor=light-dark(#FFFFFF,transparent);" parent="2X5gEa2YanrMBip19j6c-323" vertex="1">
          <mxGeometry width="8" height="8" as="geometry" />
        </mxCell>
        <mxCell id="2X5gEa2YanrMBip19j6c-325" style="edgeStyle=orthogonalEdgeStyle;rounded=0;orthogonalLoop=1;jettySize=auto;html=1;endArrow=none;startFill=0;" parent="2X5gEa2YanrMBip19j6c-323" edge="1">
          <mxGeometry relative="1" as="geometry">
            <mxPoint x="4" y="28" as="targetPoint" />
            <mxPoint x="4" y="8" as="sourcePoint" />
          </mxGeometry>
        </mxCell>
        <mxCell id="2X5gEa2YanrMBip19j6c-326" value="&lt;font style=&quot;font-size: 8px;&quot;&gt;descripcion&lt;/font&gt;" style="text;html=1;align=center;verticalAlign=middle;resizable=0;points=[];autosize=1;strokeColor=none;fillColor=none;rotation=-60;" parent="1" vertex="1">
          <mxGeometry x="-3578.5" y="-1353.9984757729335" width="80" height="30" as="geometry" />
        </mxCell>
        <mxCell id="2X5gEa2YanrMBip19j6c-335" style="edgeStyle=orthogonalEdgeStyle;rounded=0;orthogonalLoop=1;jettySize=auto;html=1;entryX=0;entryY=0.5;entryDx=0;entryDy=0;endArrow=none;startFill=0;" parent="1" source="2X5gEa2YanrMBip19j6c-337" edge="1">
          <mxGeometry relative="1" as="geometry">
            <mxPoint x="-3140.5" y="-1460" as="targetPoint" />
          </mxGeometry>
        </mxCell>
        <mxCell id="2X5gEa2YanrMBip19j6c-336" style="edgeStyle=orthogonalEdgeStyle;rounded=0;orthogonalLoop=1;jettySize=auto;html=1;entryX=1;entryY=0.5;entryDx=0;entryDy=0;endArrow=none;startFill=0;" parent="1" source="2X5gEa2YanrMBip19j6c-337" edge="1">
          <mxGeometry relative="1" as="geometry">
            <mxPoint x="-3320.5" y="-1460" as="targetPoint" />
          </mxGeometry>
        </mxCell>
        <mxCell id="2X5gEa2YanrMBip19j6c-337" value="tiene" style="rhombus;whiteSpace=wrap;html=1;" parent="1" vertex="1">
          <mxGeometry x="-3271.5" y="-1500" width="80" height="80" as="geometry" />
        </mxCell>
        <mxCell id="2X5gEa2YanrMBip19j6c-338" value="(1,n)" style="text;html=1;align=center;verticalAlign=middle;resizable=0;points=[];autosize=1;strokeColor=none;fillColor=none;" parent="1" vertex="1">
          <mxGeometry x="-3328.5" y="-1487" width="60" height="30" as="geometry" />
        </mxCell>
        <mxCell id="2X5gEa2YanrMBip19j6c-339" value="(1,1)" style="text;html=1;align=center;verticalAlign=middle;resizable=0;points=[];autosize=1;strokeColor=none;fillColor=none;" parent="1" vertex="1">
          <mxGeometry x="-3197.5" y="-1487" width="60" height="30" as="geometry" />
        </mxCell>
        <mxCell id="2X5gEa2YanrMBip19j6c-340" value="" style="group" parent="1" vertex="1" connectable="0">
          <mxGeometry x="-3123.5" y="-1518.2284757729337" width="8" height="28" as="geometry" />
        </mxCell>
        <mxCell id="2X5gEa2YanrMBip19j6c-341" value="" style="ellipse;whiteSpace=wrap;html=1;aspect=fixed;fillColor=light-dark(#FFFFFF,#FFFFFF);" parent="2X5gEa2YanrMBip19j6c-340" vertex="1">
          <mxGeometry width="8" height="8" as="geometry" />
        </mxCell>
        <mxCell id="2X5gEa2YanrMBip19j6c-342" style="edgeStyle=orthogonalEdgeStyle;rounded=0;orthogonalLoop=1;jettySize=auto;html=1;endArrow=none;startFill=0;" parent="2X5gEa2YanrMBip19j6c-340" edge="1">
          <mxGeometry relative="1" as="geometry">
            <mxPoint x="4" y="28" as="targetPoint" />
            <mxPoint x="4" y="8" as="sourcePoint" />
          </mxGeometry>
        </mxCell>
        <mxCell id="2X5gEa2YanrMBip19j6c-343" value="&lt;font style=&quot;font-size: 8px;&quot;&gt;num_partida&lt;/font&gt;" style="text;html=1;align=center;verticalAlign=middle;resizable=0;points=[];autosize=1;strokeColor=none;fillColor=none;rotation=-60;" parent="1" vertex="1">
          <mxGeometry x="-3149.5" y="-1562.9984757729342" width="80" height="30" as="geometry" />
        </mxCell>
        <mxCell id="2X5gEa2YanrMBip19j6c-344" value="" style="group" parent="1" vertex="1" connectable="0">
          <mxGeometry x="-3103.5" y="-1518.7684757729337" width="8" height="28" as="geometry" />
        </mxCell>
        <mxCell id="2X5gEa2YanrMBip19j6c-345" value="" style="ellipse;whiteSpace=wrap;html=1;aspect=fixed;fillColor=light-dark(#FFFFFF,transparent);" parent="2X5gEa2YanrMBip19j6c-344" vertex="1">
          <mxGeometry width="8" height="8" as="geometry" />
        </mxCell>
        <mxCell id="2X5gEa2YanrMBip19j6c-346" style="edgeStyle=orthogonalEdgeStyle;rounded=0;orthogonalLoop=1;jettySize=auto;html=1;endArrow=none;startFill=0;" parent="2X5gEa2YanrMBip19j6c-344" edge="1">
          <mxGeometry relative="1" as="geometry">
            <mxPoint x="4" y="28" as="targetPoint" />
            <mxPoint x="4" y="8" as="sourcePoint" />
          </mxGeometry>
        </mxCell>
        <mxCell id="2X5gEa2YanrMBip19j6c-347" value="&lt;font style=&quot;font-size: 8px;&quot;&gt;distancia&lt;/font&gt;" style="text;html=1;align=center;verticalAlign=middle;resizable=0;points=[];autosize=1;strokeColor=none;fillColor=none;rotation=-60;" parent="1" vertex="1">
          <mxGeometry x="-3127.5" y="-1558.9984757729335" width="70" height="30" as="geometry" />
        </mxCell>
        <mxCell id="2X5gEa2YanrMBip19j6c-348" value="" style="group" parent="1" vertex="1" connectable="0">
          <mxGeometry x="-3084" y="-1518.2284757729337" width="8" height="28" as="geometry" />
        </mxCell>
        <mxCell id="2X5gEa2YanrMBip19j6c-349" value="" style="ellipse;whiteSpace=wrap;html=1;aspect=fixed;fillColor=light-dark(#FFFFFF,transparent);" parent="2X5gEa2YanrMBip19j6c-348" vertex="1">
          <mxGeometry width="8" height="8" as="geometry" />
        </mxCell>
        <mxCell id="2X5gEa2YanrMBip19j6c-350" style="edgeStyle=orthogonalEdgeStyle;rounded=0;orthogonalLoop=1;jettySize=auto;html=1;endArrow=none;startFill=0;" parent="2X5gEa2YanrMBip19j6c-348" edge="1">
          <mxGeometry relative="1" as="geometry">
            <mxPoint x="4" y="28" as="targetPoint" />
            <mxPoint x="4" y="8" as="sourcePoint" />
          </mxGeometry>
        </mxCell>
        <mxCell id="2X5gEa2YanrMBip19j6c-351" value="&lt;font style=&quot;font-size: 8px;&quot;&gt;restricciones&lt;/font&gt;" style="text;html=1;align=center;verticalAlign=middle;resizable=0;points=[];autosize=1;strokeColor=none;fillColor=none;rotation=-60;" parent="1" vertex="1">
          <mxGeometry x="-3112.5" y="-1567.9984757729342" width="90" height="30" as="geometry" />
        </mxCell>
        <mxCell id="2X5gEa2YanrMBip19j6c-356" value="" style="curved=1;endArrow=none;html=1;rounded=0;startFill=0;" parent="1" edge="1">
          <mxGeometry width="50" height="50" relative="1" as="geometry">
            <mxPoint x="-3290.5" y="-1460" as="sourcePoint" />
            <mxPoint x="-3112" y="-1501" as="targetPoint" />
            <Array as="points">
              <mxPoint x="-3280.5" y="-1460" />
              <mxPoint x="-3230.5" y="-1530" />
              <mxPoint x="-3140.5" y="-1500" />
            </Array>
          </mxGeometry>
        </mxCell>
        <mxCell id="2X5gEa2YanrMBip19j6c-357" value="" style="ellipse;whiteSpace=wrap;html=1;aspect=fixed;fillColor=light-dark(#FFFFFF,#FFFFFF);" parent="1" vertex="1">
          <mxGeometry x="-3113.5" y="-1504.9984757729337" width="8" height="8" as="geometry" />
        </mxCell>
        <mxCell id="2X5gEa2YanrMBip19j6c-359" style="edgeStyle=orthogonalEdgeStyle;rounded=0;orthogonalLoop=1;jettySize=auto;html=1;entryX=1;entryY=0.5;entryDx=0;entryDy=0;endArrow=none;startFill=0;" parent="1" source="2X5gEa2YanrMBip19j6c-360" edge="1">
          <mxGeometry relative="1" as="geometry">
            <mxPoint x="-2940.5" y="-1460" as="targetPoint" />
          </mxGeometry>
        </mxCell>
        <mxCell id="2X5gEa2YanrMBip19j6c-363" style="edgeStyle=orthogonalEdgeStyle;rounded=0;orthogonalLoop=1;jettySize=auto;html=1;endArrow=none;startFill=0;" parent="1" source="2X5gEa2YanrMBip19j6c-360" target="2X5gEa2YanrMBip19j6c-258" edge="1">
          <mxGeometry relative="1" as="geometry" />
        </mxCell>
        <mxCell id="2X5gEa2YanrMBip19j6c-360" value="tiene" style="rhombus;whiteSpace=wrap;html=1;" parent="1" vertex="1">
          <mxGeometry x="-2891.5" y="-1500" width="80" height="80" as="geometry" />
        </mxCell>
        <mxCell id="2X5gEa2YanrMBip19j6c-361" value="(1,1)" style="text;html=1;align=center;verticalAlign=middle;resizable=0;points=[];autosize=1;strokeColor=none;fillColor=none;" parent="1" vertex="1">
          <mxGeometry x="-2940.5" y="-1487" width="60" height="30" as="geometry" />
        </mxCell>
        <mxCell id="2X5gEa2YanrMBip19j6c-362" value="(0,n)" style="text;html=1;align=center;verticalAlign=middle;resizable=0;points=[];autosize=1;strokeColor=none;fillColor=none;" parent="1" vertex="1">
          <mxGeometry x="-2914" y="-1311.02" width="60" height="30" as="geometry" />
        </mxCell>
        <mxCell id="2X5gEa2YanrMBip19j6c-365" value="" style="group" parent="1" vertex="1" connectable="0">
          <mxGeometry x="-3023" y="-1827.9984757729337" width="8" height="28" as="geometry" />
        </mxCell>
        <mxCell id="2X5gEa2YanrMBip19j6c-366" value="" style="ellipse;whiteSpace=wrap;html=1;aspect=fixed;fillColor=light-dark(#FFFFFF,transparent);" parent="2X5gEa2YanrMBip19j6c-365" vertex="1">
          <mxGeometry width="8" height="8" as="geometry" />
        </mxCell>
        <mxCell id="2X5gEa2YanrMBip19j6c-367" style="edgeStyle=orthogonalEdgeStyle;rounded=0;orthogonalLoop=1;jettySize=auto;html=1;endArrow=none;startFill=0;" parent="2X5gEa2YanrMBip19j6c-365" edge="1">
          <mxGeometry relative="1" as="geometry">
            <mxPoint x="4" y="28" as="targetPoint" />
            <mxPoint x="4" y="8" as="sourcePoint" />
          </mxGeometry>
        </mxCell>
        <mxCell id="2X5gEa2YanrMBip19j6c-368" value="&lt;font style=&quot;font-size: 8px;&quot;&gt;federado&lt;/font&gt;" style="text;html=1;align=center;verticalAlign=middle;resizable=0;points=[];autosize=1;strokeColor=none;fillColor=none;rotation=-60;" parent="1" vertex="1">
          <mxGeometry x="-3043" y="-1865.9984757729342" width="60" height="30" as="geometry" />
        </mxCell>
        <mxCell id="2X5gEa2YanrMBip19j6c-369" value="Inscripcion" style="rounded=0;whiteSpace=wrap;html=1;" parent="1" vertex="1">
          <mxGeometry x="-2759.5" y="-1800" width="200" height="60" as="geometry" />
        </mxCell>
        <mxCell id="2X5gEa2YanrMBip19j6c-370" value="" style="group" parent="1" vertex="1" connectable="0">
          <mxGeometry x="-2673.5" y="-1827.9984757729337" width="8" height="28" as="geometry" />
        </mxCell>
        <mxCell id="2X5gEa2YanrMBip19j6c-371" value="" style="ellipse;whiteSpace=wrap;html=1;aspect=fixed;fillColor=light-dark(#FFFFFF,transparent);" parent="2X5gEa2YanrMBip19j6c-370" vertex="1">
          <mxGeometry width="8" height="8" as="geometry" />
        </mxCell>
        <mxCell id="2X5gEa2YanrMBip19j6c-372" style="edgeStyle=orthogonalEdgeStyle;rounded=0;orthogonalLoop=1;jettySize=auto;html=1;endArrow=none;startFill=0;" parent="2X5gEa2YanrMBip19j6c-370" edge="1">
          <mxGeometry relative="1" as="geometry">
            <mxPoint x="4" y="28" as="targetPoint" />
            <mxPoint x="4" y="8" as="sourcePoint" />
          </mxGeometry>
        </mxCell>
        <mxCell id="2X5gEa2YanrMBip19j6c-373" value="&lt;font style=&quot;font-size: 8px;&quot;&gt;fecha_inscrip&lt;/font&gt;" style="text;html=1;align=center;verticalAlign=middle;resizable=0;points=[];autosize=1;strokeColor=none;fillColor=none;rotation=-60;" parent="1" vertex="1">
          <mxGeometry x="-2701" y="-1877.9984757729342" width="90" height="30" as="geometry" />
        </mxCell>
        <mxCell id="2X5gEa2YanrMBip19j6c-386" value="" style="endArrow=none;html=1;rounded=0;" parent="1" edge="1">
          <mxGeometry width="50" height="50" relative="1" as="geometry">
            <mxPoint x="-2649" y="-1800" as="sourcePoint" />
            <mxPoint x="-2623" y="-1828" as="targetPoint" />
          </mxGeometry>
        </mxCell>
        <mxCell id="2X5gEa2YanrMBip19j6c-387" value="fin" style="ellipse;whiteSpace=wrap;html=1;" parent="1" vertex="1">
          <mxGeometry x="-2634" y="-1847" width="76" height="24" as="geometry" />
        </mxCell>
        <mxCell id="2X5gEa2YanrMBip19j6c-388" value="" style="endArrow=none;html=1;rounded=0;exitX=0.75;exitY=0;exitDx=0;exitDy=0;" parent="1" edge="1">
          <mxGeometry width="50" height="50" relative="1" as="geometry">
            <mxPoint x="-2603" y="-1847" as="sourcePoint" />
            <mxPoint x="-2590" y="-1870" as="targetPoint" />
          </mxGeometry>
        </mxCell>
        <mxCell id="2X5gEa2YanrMBip19j6c-389" value="" style="endArrow=none;html=1;rounded=0;exitX=0.75;exitY=0;exitDx=0;exitDy=0;" parent="1" edge="1">
          <mxGeometry width="50" height="50" relative="1" as="geometry">
            <mxPoint x="-2573" y="-1844" as="sourcePoint" />
            <mxPoint x="-2563" y="-1857" as="targetPoint" />
          </mxGeometry>
        </mxCell>
        <mxCell id="2X5gEa2YanrMBip19j6c-390" value="" style="endArrow=none;html=1;rounded=0;exitX=1;exitY=0.5;exitDx=0;exitDy=0;" parent="1" source="2X5gEa2YanrMBip19j6c-387" edge="1">
          <mxGeometry width="50" height="50" relative="1" as="geometry">
            <mxPoint x="-2558" y="-1823" as="sourcePoint" />
            <mxPoint x="-2543" y="-1835" as="targetPoint" />
          </mxGeometry>
        </mxCell>
        <mxCell id="2X5gEa2YanrMBip19j6c-392" value="" style="group" parent="1" vertex="1" connectable="0">
          <mxGeometry x="-2592" y="-1876.998729810778" width="8" height="28" as="geometry" />
        </mxCell>
        <mxCell id="2X5gEa2YanrMBip19j6c-393" value="" style="ellipse;whiteSpace=wrap;html=1;aspect=fixed;" parent="2X5gEa2YanrMBip19j6c-392" vertex="1">
          <mxGeometry width="8" height="8" as="geometry" />
        </mxCell>
        <mxCell id="2X5gEa2YanrMBip19j6c-394" value="" style="group" parent="1" vertex="1" connectable="0">
          <mxGeometry x="-2565" y="-1863.998729810778" width="8" height="28" as="geometry" />
        </mxCell>
        <mxCell id="2X5gEa2YanrMBip19j6c-395" value="" style="ellipse;whiteSpace=wrap;html=1;aspect=fixed;" parent="2X5gEa2YanrMBip19j6c-394" vertex="1">
          <mxGeometry width="8" height="8" as="geometry" />
        </mxCell>
        <mxCell id="2X5gEa2YanrMBip19j6c-396" value="" style="group" parent="1" vertex="1" connectable="0">
          <mxGeometry x="-2544" y="-1838.998729810778" width="8" height="28" as="geometry" />
        </mxCell>
        <mxCell id="2X5gEa2YanrMBip19j6c-397" value="" style="ellipse;whiteSpace=wrap;html=1;aspect=fixed;" parent="2X5gEa2YanrMBip19j6c-396" vertex="1">
          <mxGeometry width="8" height="8" as="geometry" />
        </mxCell>
        <mxCell id="2X5gEa2YanrMBip19j6c-398" value="&lt;font style=&quot;font-size: 8px;&quot;&gt;completada&lt;/font&gt;" style="text;html=1;align=center;verticalAlign=middle;resizable=0;points=[];autosize=1;strokeColor=none;fillColor=none;rotation=0;" parent="1" vertex="1">
          <mxGeometry x="-2593" y="-1890.998729810778" width="70" height="30" as="geometry" />
        </mxCell>
        <mxCell id="2X5gEa2YanrMBip19j6c-399" value="&lt;font style=&quot;font-size: 8px;&quot;&gt;tiempo(0,1)&lt;/font&gt;" style="text;html=1;align=center;verticalAlign=middle;resizable=0;points=[];autosize=1;strokeColor=none;fillColor=none;rotation=0;" parent="1" vertex="1">
          <mxGeometry x="-2569" y="-1876.998729810778" width="80" height="30" as="geometry" />
        </mxCell>
        <mxCell id="2X5gEa2YanrMBip19j6c-400" value="&lt;font style=&quot;font-size: 8px;&quot;&gt;puesto(0,1)&lt;/font&gt;" style="text;html=1;align=center;verticalAlign=middle;resizable=0;points=[];autosize=1;strokeColor=none;fillColor=none;rotation=0;" parent="1" vertex="1">
          <mxGeometry x="-2547" y="-1852.998729810778" width="80" height="30" as="geometry" />
        </mxCell>
        <mxCell id="2X5gEa2YanrMBip19j6c-403" style="edgeStyle=orthogonalEdgeStyle;rounded=0;orthogonalLoop=1;jettySize=auto;html=1;entryX=0;entryY=0.5;entryDx=0;entryDy=0;endArrow=none;startFill=0;" parent="1" source="2X5gEa2YanrMBip19j6c-405" edge="1">
          <mxGeometry relative="1" as="geometry">
            <mxPoint x="-2760" y="-1769.7" as="targetPoint" />
          </mxGeometry>
        </mxCell>
        <mxCell id="2X5gEa2YanrMBip19j6c-404" style="edgeStyle=orthogonalEdgeStyle;rounded=0;orthogonalLoop=1;jettySize=auto;html=1;entryX=1;entryY=0.5;entryDx=0;entryDy=0;endArrow=none;startFill=0;" parent="1" source="2X5gEa2YanrMBip19j6c-405" edge="1">
          <mxGeometry relative="1" as="geometry">
            <mxPoint x="-2940" y="-1769.7" as="targetPoint" />
          </mxGeometry>
        </mxCell>
        <mxCell id="2X5gEa2YanrMBip19j6c-405" value="trabaja" style="rhombus;whiteSpace=wrap;html=1;" parent="1" vertex="1">
          <mxGeometry x="-2891" y="-1809.7" width="80" height="80" as="geometry" />
        </mxCell>
        <mxCell id="2X5gEa2YanrMBip19j6c-414" value="(1,n)" style="text;html=1;align=center;verticalAlign=middle;resizable=0;points=[];autosize=1;strokeColor=none;fillColor=none;" parent="1" vertex="1">
          <mxGeometry x="-2949" y="-1796.7" width="60" height="30" as="geometry" />
        </mxCell>
        <mxCell id="2X5gEa2YanrMBip19j6c-415" value="(1,1)" style="text;html=1;align=center;verticalAlign=middle;resizable=0;points=[];autosize=1;strokeColor=none;fillColor=none;" parent="1" vertex="1">
          <mxGeometry x="-2819" y="-1796.7" width="60" height="30" as="geometry" />
        </mxCell>
        <mxCell id="2X5gEa2YanrMBip19j6c-416" value="" style="curved=1;endArrow=none;html=1;rounded=0;startFill=0;" parent="1" edge="1">
          <mxGeometry width="50" height="50" relative="1" as="geometry">
            <mxPoint x="-2906" y="-1769.7" as="sourcePoint" />
            <mxPoint x="-2658" y="-1811.5" as="targetPoint" />
            <Array as="points">
              <mxPoint x="-2896" y="-1770" />
              <mxPoint x="-2846" y="-1840" />
              <mxPoint x="-2756" y="-1810" />
            </Array>
          </mxGeometry>
        </mxCell>
        <mxCell id="2X5gEa2YanrMBip19j6c-417" value="" style="ellipse;whiteSpace=wrap;html=1;aspect=fixed;fillColor=light-dark(#FFFFFF,#FFFFFF);" parent="1" vertex="1">
          <mxGeometry x="-2659" y="-1815.9984757729337" width="8" height="8" as="geometry" />
        </mxCell>
        <mxCell id="2X5gEa2YanrMBip19j6c-421" value="" style="edgeStyle=orthogonalEdgeStyle;rounded=0;orthogonalLoop=1;jettySize=auto;html=1;exitX=0.75;exitY=1;exitDx=0;exitDy=0;entryX=1;entryY=0.5;entryDx=0;entryDy=0;" parent="1" source="2X5gEa2YanrMBip19j6c-180" target="2X5gEa2YanrMBip19j6c-420" edge="1">
          <mxGeometry relative="1" as="geometry">
            <mxPoint x="-2990" y="-1740" as="sourcePoint" />
            <mxPoint x="-2751" y="-1242" as="targetPoint" />
            <Array as="points">
              <mxPoint x="-2990" y="-1680" />
              <mxPoint x="-2640" y="-1680" />
            </Array>
          </mxGeometry>
        </mxCell>
        <mxCell id="2X5gEa2YanrMBip19j6c-465" style="edgeStyle=orthogonalEdgeStyle;rounded=0;orthogonalLoop=1;jettySize=auto;html=1;entryX=1;entryY=0.5;entryDx=0;entryDy=0;exitX=0.5;exitY=1;exitDx=0;exitDy=0;endArrow=none;startFill=0;" parent="1" source="2X5gEa2YanrMBip19j6c-420" target="2X5gEa2YanrMBip19j6c-258" edge="1">
          <mxGeometry relative="1" as="geometry" />
        </mxCell>
        <mxCell id="2X5gEa2YanrMBip19j6c-420" value="tiene" style="rhombus;whiteSpace=wrap;html=1;" parent="1" vertex="1">
          <mxGeometry x="-2680" y="-1500" width="80" height="80" as="geometry" />
        </mxCell>
        <mxCell id="2X5gEa2YanrMBip19j6c-423" value="" style="edgeStyle=orthogonalEdgeStyle;rounded=0;orthogonalLoop=1;jettySize=auto;html=1;entryX=0.5;entryY=0;entryDx=0;entryDy=0;endArrow=none;endFill=1;startFill=0;" parent="1" source="2X5gEa2YanrMBip19j6c-180" target="2X5gEa2YanrMBip19j6c-422" edge="1">
          <mxGeometry relative="1" as="geometry">
            <mxPoint x="-3040" y="-1740" as="sourcePoint" />
            <mxPoint x="-3040" y="-1491" as="targetPoint" />
          </mxGeometry>
        </mxCell>
        <mxCell id="2X5gEa2YanrMBip19j6c-422" value="tiene" style="rhombus;whiteSpace=wrap;html=1;" parent="1" vertex="1">
          <mxGeometry x="-3080.5" y="-1670" width="80" height="80" as="geometry" />
        </mxCell>
        <mxCell id="2X5gEa2YanrMBip19j6c-424" value="(1,1)" style="text;html=1;align=center;verticalAlign=middle;resizable=0;points=[];autosize=1;strokeColor=none;fillColor=none;" parent="1" vertex="1">
          <mxGeometry x="-2988" y="-1710" width="60" height="30" as="geometry" />
        </mxCell>
        <mxCell id="2X5gEa2YanrMBip19j6c-425" value="(1,n)" style="text;html=1;align=center;verticalAlign=middle;resizable=0;points=[];autosize=1;strokeColor=none;fillColor=none;" parent="1" vertex="1">
          <mxGeometry x="-3100" y="-1740" width="60" height="30" as="geometry" />
        </mxCell>
        <mxCell id="2X5gEa2YanrMBip19j6c-426" value="(0,n)" style="text;html=1;align=center;verticalAlign=middle;resizable=0;points=[];autosize=1;strokeColor=none;fillColor=none;" parent="1" vertex="1">
          <mxGeometry x="-3040" y="-1521" width="60" height="30" as="geometry" />
        </mxCell>
        <mxCell id="2X5gEa2YanrMBip19j6c-427" value="(0,n)" style="text;html=1;align=center;verticalAlign=middle;resizable=0;points=[];autosize=1;strokeColor=none;fillColor=none;" parent="1" vertex="1">
          <mxGeometry x="-2750" y="-1281" width="60" height="30" as="geometry" />
        </mxCell>
        <mxCell id="zFQvC5J3_l2WWb7rlaTG-1" value="(0,1)" style="text;html=1;align=center;verticalAlign=middle;resizable=0;points=[];autosize=1;strokeColor=none;fillColor=none;" vertex="1" parent="1">
          <mxGeometry x="-2644" y="-1826" width="60" height="30" as="geometry" />
        </mxCell>
      </root>
    </mxGraphModel>
  </diagram>
</mxfile>
